<svg xmlns="http://www.w3.org/2000/svg" viewBox="0 0 500 500"><defs><style>.cls-1{fill:#fff;}.cls-2{font-size:42.17px;font-family:OptimaLTPro-Medium, Optima LT Pro;font-weight:500;letter-spacing:-0.05em;}.cls-2,.cls-3{fill:#3b3b3b;}</style></defs><g id="BACKGROUND"><rect class="cls-1" width="500" height="500"/></g><g id="OBJECTS"><text class="cls-2" transform="translate(201.95 271.97)">WhatTheBook</text><path class="cls-3" d="M111.64,206.21a2.66,2.66,0,0,0-2.8.81l-.15-.06-.22-.08L87.4,200.41l-.22-.06-.16,0a2.67,2.67,0,0,0-5.2-.49l-34,110.6A2.67,2.67,0,0,0,52.41,313l.14.06.22.08,21.07,6.47a1.55,1.55,0,0,0,.23.06l.15,0a2.67,2.67,0,0,0,5.2.49l4-12.86,3.41-11.09,26.63-86.65A2.66,2.66,0,0,0,111.64,206.21ZM79.41,302l-1.14,3.71-3.63,11.8h-.06l-.1,0-4-1.22,6.39-20.8a.74.74,0,0,0-1.39-.49.14.14,0,0,0,0,.06L69.1,315.82l-4.2-1.29,11.65-37.9a.74.74,0,0,0-.49-.92h0a.54.54,0,0,0-.25,0,.72.72,0,0,0-.65.47s0,0,0,.05L63.48,314.1,53.41,311l-.09,0-.06,0,26.3-85.59L83,214.26l3.63-11.8h.07l.09,0,4.46,1.37L76.28,252.49a.74.74,0,0,0,1.41.43l15-48.62,4.19,1.29-9,29.22a.76.76,0,0,0,.26.81.61.61,0,0,0,.23.11h0a.75.75,0,0,0,.93-.49l9-29.22,9.58,2.95.1,0,.06,0-6.71,21.83-.33,1.06Z"/><path class="cls-3" d="M91.71,244.22a.71.71,0,0,0-.9.43l0,0-9.26,30.14a.73.73,0,0,0,.49.92.74.74,0,0,0,.92-.49l9.26-30.13A.73.73,0,0,0,91.71,244.22Z"/><path class="cls-3" d="M144.26,199.47a2.67,2.67,0,0,0-2.45,1.6H119a2.67,2.67,0,0,0-5.11,1.07v115.7A2.66,2.66,0,0,0,119,318.9l.16,0h22.51l.15,0a2.67,2.67,0,0,0,5.12-1.06V202.14A2.67,2.67,0,0,0,144.26,199.47Zm-2.67,27.72v89.54h-4.32V295a.74.74,0,0,0-1.48-.06v21.82H131.4V277.09a.74.74,0,0,0-.74-.74h0a.71.71,0,0,0-.26,0,.73.73,0,0,0-.48.64v39.71h-10.7V203.24h4.83V254.1a.74.74,0,0,0,1.48,0V203.23h4.39V233.8a.73.73,0,0,0,.48.69.71.71,0,0,0,.26,0h0a.74.74,0,0,0,.74-.73V203.23h10.19v23.95Z"/><path class="cls-3" d="M136.53,243.49a.74.74,0,0,0-.74.68v31.58a.74.74,0,0,0,1.48,0V244.23A.74.74,0,0,0,136.53,243.49Z"/><path class="cls-3" d="M181.09,199.47a2.67,2.67,0,0,0-2.45,1.6H155.82a2.67,2.67,0,0,0-5.11,1.07v115.7a2.66,2.66,0,0,0,5.11,1.06l.16,0h22.51l.15,0a2.67,2.67,0,0,0,5.12-1.06V202.14A2.67,2.67,0,0,0,181.09,199.47Zm-2.67,27.72v89.54H174.1V295a.74.74,0,0,0-1.48-.06v21.82h-4.39V277.09a.74.74,0,0,0-.74-.74h0a.75.75,0,0,0-.26,0,.72.72,0,0,0-.47.64.11.11,0,0,0,0,0v39.66h-10.7V203.24h4.83V254.1a.74.74,0,1,0,1.48,0V203.23h4.39V233.8a.73.73,0,0,0,.48.69.75.75,0,0,0,.26,0h0a.74.74,0,0,0,.74-.73V203.23h10.19v23.95Z"/><path class="cls-3" d="M173.36,243.49a.74.74,0,0,0-.74.68v31.58a.74.74,0,0,0,1.48,0V244.23A.74.74,0,0,0,173.36,243.49Z"/></g></svg>